<svg xmlns="http://www.w3.org/2000/svg" xmlns:xlink="http://www.w3.org/1999/xlink" xmlns:lucid="lucid" width="797.5" height="399.27"><g transform="translate(-200.506282069617 -827.2090550963404)" lucid:page-tab-id="0_0"><path d="M201.5 1136.78v-23.57a6 6 0 0 1 6-6h228a6 6 0 0 1 6 6v23.58z" stroke="#000" stroke-width="2" fill="#fff"/><path d="M441.5 1136.78v82.7a6 6 0 0 1-6 6h-228a6 6 0 0 1-6-6v-82.7z" stroke="#000" stroke-width="2" fill="none"/><use xlink:href="#a" transform="matrix(1,0,0,1,201.506282069617,1107.2090550963403) translate(88 24.933333333333337)"/><path d="M508.83 986.88h124.33v77H508.83zM633.16 986.88H757.5v77H633.16zM757.5 986.88h124.33v77H757.5z" fill="#f4d9ff"/><path d="M508.83 986.88v77M508.83 986.88h124.33M508.83 1063.88h124.33M633.16 986.88v77M633.16 986.88H757.5M633.16 1063.88H757.5M757.5 986.88v77M881.83 986.88v77M757.5 986.88h124.33M757.5 1063.88h124.33" stroke="#000" stroke-width="2" fill="none"/><use xlink:href="#b" transform="matrix(1,0,0,1,513.8296154028635,991.875721763007) translate(49.5 42.43333333333334)"/><use xlink:href="#b" transform="matrix(1,0,0,1,638.1629487361968,991.875721763007) translate(49.5 42.43333333333334)"/><use xlink:href="#c" transform="matrix(1,0,0,1,762.4962820695301,991.875721763007) translate(33.5 42.43333333333334)"/><path d="M924 833.2a6 6 0 0 1 6-6h62a6 6 0 0 1 6 6v30.02a6 6 0 0 1-6 6h-62a6 6 0 0 1-6-6z" fill="none"/><use xlink:href="#d" transform="matrix(1,0,0,1,928.9999999999995,832.2090550963404) translate(0 25.433333333333334)"/><path d="M902 832.53v4.02m0 16.06v8.04m0 16.06v8.03m0 16.06v8.02m0 16.06v8.03m0 16.08V957m0 16.07v8.03m0 16.06v8.03m0 16.05v8.03m0 16.06v8.03m0 16.06v8.04m0 16.06v8.03m0 16.06v8.03m0 16.06v8.04m0 16.06v8.03m0 16.06v8.02m0 16.07v4" stroke="#000" stroke-width="4" stroke-linecap="round" fill="none"/><path d="M381.5 836.53a6 6 0 0 1 6-6h78.02a6 6 0 0 1 6 6v30a6 6 0 0 1-6 6h-78a6 6 0 0 1-6-6z" fill="none"/><use xlink:href="#e" transform="matrix(1,0,0,1,386.506282069617,835.5323884296737) translate(0 25.433333333333334)"/><path d="M483.5 835.86v3.98m0 15.92v7.96m0 15.92v7.96m0 15.93v7.96m0 15.9v7.97m0 15.93v7.96m0 15.92v7.96m0 15.92v7.96m0 15.93v7.96m0 15.93v7.96m0 15.92v7.96m0 15.92v7.96m0 15.92v7.96m0 15.93v7.96m0 15.92v7.96m0 15.94v7.96m0 15.92v3.98" stroke="#000" stroke-width="4" stroke-linecap="round" fill="none"/><path d="M508.83 839.86a6 6 0 0 1 6-6h190a6 6 0 0 1 6 6v30a6 6 0 0 1-6 6h-190a6 6 0 0 1-6-6z" fill="none"/><use xlink:href="#f" transform="matrix(1,0,0,1,513.8296154028634,838.8557217629497) translate(0 25.433333333333334)"/><use xlink:href="#g" transform="matrix(1,0,0,1,513.8296154028634,838.8557217629497) translate(96 25.433333333333334)"/><path d="M404.5 1025.7h50.6a.08.08 0 0 0 .07-.07.08.08 0 0 1 .1-.1h33.57" stroke="#3a414a" stroke-width="4" fill="none"/><path d="M404.57 1027.68h-2.37l.32-1.96-.26-2h2.3z" stroke="#3a414a" stroke-width=".05" fill="#3a414a"/><path d="M503.83 1025.54l-13 7.5v-15z" stroke="#3a414a" stroke-width="4" fill="#3a414a"/><path d="M401.5 1025.7c0 5.53-4.47 10-10 10-5.52 0-10-4.47-10-10 0-5.5 4.48-10 10-10 5.53 0 10 4.5 10 10z" stroke="#000" stroke-width="2"/><path d="M201.5 954.88V913.2a6 6 0 0 1 6-6h228a6 6 0 0 1 6 6v41.68z" stroke="#000" stroke-width="2" fill="#fff"/><path d="M441.5 954.88v137a6 6 0 0 1-6 6h-228a6 6 0 0 1-6-6v-137z" stroke="#000" stroke-width="2" fill="none"/><use xlink:href="#h" transform="matrix(1,0,0,1,201.506282069617,907.2090550963404) translate(24 32.93333333333334)"/><path d="M201.5 954.88h158v141h-158zM359.5 954.88h82v141h-82z" fill-opacity="0"/><path d="M201.5 954.88v141M201.5 954.88h158M201.5 1095.88h158M441.5 954.88v141M359.5 954.88h82M359.5 1095.88h82" stroke="#000" stroke-width="2" fill="none"/><use xlink:href="#i" transform="matrix(1,0,0,1,206.506282069617,959.875721763007) translate(2 74.43333333333334)"/><defs><path d="M447-538c76 0 102 52 102 146V0h-77v-378c-4-59 6-89-41-94-34 0-65 21-92 63V0h-78v-378c-4-59 6-89-41-94-34 0-65 21-92 63V0H51v-527h65l6 62c29-39 54-71 114-73 49 0 81 23 95 70 29-39 56-70 116-70" id="j"/><path d="M478-115c0 42 12 57 43 67l-21 60c-51-7-83-32-96-75-34 44-90 74-165 74C137 13 68-51 69-151c3-149 154-179 324-169 10-103-29-151-125-148-40 0-86 9-137 27l-23-64c153-63 370-47 370 137v253zM260-52c60-1 107-35 133-75v-135c-121-4-236-1-234 110 0 67 34 100 101 100" id="k"/><path d="M300-773c36-1 62 24 62 59s-26 60-62 59c-35 1-61-25-60-59-1-34 25-60 60-59zm67 706h148V0H121v-67h162v-393H126v-67h241v460" id="l"/><path d="M327-471c-64 0-116 47-143 88V0h-84v-527h72l7 74c34-46 100-84 174-85 99 0 148 52 148 156V0h-84v-320c-1-91-3-151-90-151" id="m"/><g id="a"><use transform="matrix(0.02666666666666667,0,0,0.02666666666666667,0,0)" xlink:href="#j"/><use transform="matrix(0.02666666666666667,0,0,0.02666666666666667,16,0)" xlink:href="#k"/><use transform="matrix(0.02666666666666667,0,0,0.02666666666666667,32,0)" xlink:href="#l"/><use transform="matrix(0.02666666666666667,0,0,0.02666666666666667,48,0)" xlink:href="#m"/></g><path d="M300-700c172 0 225 159 225 355 0 197-53 356-225 356S75-148 75-345c0-196 53-355 225-355zM163-345c0 192 46 288 137 288s137-96 137-288c0-191-46-287-137-287s-137 96-137 287zm137-65c36-1 67 30 66 65 1 36-30 67-66 66-36 1-66-30-65-66-1-35 29-66 65-65" id="n"/><use transform="matrix(0.02666666666666667,0,0,0.02666666666666667,0,0)" xlink:href="#n" id="b"/><path d="M211-77c-1-48 40-89 88-88 49-2 89 40 88 88 1 49-39 89-88 88-48 1-89-40-88-88" id="o"/><g id="c"><use transform="matrix(0.02666666666666667,0,0,0.02666666666666667,0,0)" xlink:href="#o"/><use transform="matrix(0.02666666666666667,0,0,0.02666666666666667,16,0)" xlink:href="#o"/><use transform="matrix(0.02666666666666667,0,0,0.02666666666666667,32,0)" xlink:href="#o"/></g><path d="M384-292H216V0H52v-693h164v266h168v-266h164V0H384v-292" id="p"/><path d="M305-549c182 0 265 135 246 330H207c9 143 167 146 264 77l63 86c-49 43-122 73-212 73C144 15 46-88 46-265c0-168 91-284 259-284zm0 106c-69 3-95 54-100 128h195c-1-85-33-128-95-128" id="q"/><path d="M517-153c0 38 8 53 35 64L519 15c-63-7-105-26-130-70-36 43-99 72-174 72C111 20 34-50 35-150c3-153 155-192 330-181 5-70-27-100-105-101-47 1-106 14-146 28L78-509c57-22 135-39 207-40 155 0 232 63 232 188v208zM269-96c41-1 82-27 96-58v-87c-92-6-167 15-167 80 0 42 27 65 71 65" id="r"/><path d="M364-549c149 3 194 121 194 282 0 153-58 277-204 284-51 0-93-18-126-55v243L70 222v-753h140l7 59c34-43 81-75 147-77zm31 284c-3-99-6-167-80-167-33 0-62 21-87 62v224c20 27 38 47 78 47 76 0 88-72 89-166" id="s"/><g id="d"><use transform="matrix(0.02666666666666667,0,0,0.02666666666666667,0,0)" xlink:href="#p"/><use transform="matrix(0.02666666666666667,0,0,0.02666666666666667,16,0)" xlink:href="#q"/><use transform="matrix(0.02666666666666667,0,0,0.02666666666666667,32,0)" xlink:href="#r"/><use transform="matrix(0.02666666666666667,0,0,0.02666666666666667,48,0)" xlink:href="#s"/></g><path d="M568-203C568-51 446 15 286 17 171 17 80-16 12-83l83-92c53 47 115 70 187 70 62 1 115-27 115-85 0-74-50-78-125-103-80-27-139-54-173-87s-51-76-51-129c-1-238 381-252 509-112l-77 89c-41-34-92-54-159-58-71-4-129 45-91 105 33 31 69 39 129 59 122 41 209 80 209 223" id="t"/><path d="M327-181c-9 94 114 82 169 49l52 101C498 1 440 17 374 17c-132 1-205-70-205-198v-241H58v-109h111v-115l158-19v134h171l-16 109H327v241" id="u"/><path d="M352-108c52-2 81-21 118-45l70 100c-47 39-113 70-197 70C169 14 69-89 69-262c0-174 103-283 277-287 87 1 143 25 194 67l-68 95c-39-27-78-40-119-40-79 0-119 55-119 165-1 98 32 151 118 154" id="v"/><path d="M228 0H70v-742l158-17V0zm171-296L588 0H408L234-291l175-240h165" id="w"/><g id="e"><use transform="matrix(0.02666666666666667,0,0,0.02666666666666667,0,0)" xlink:href="#t"/><use transform="matrix(0.02666666666666667,0,0,0.02666666666666667,16,0)" xlink:href="#u"/><use transform="matrix(0.02666666666666667,0,0,0.02666666666666667,32,0)" xlink:href="#r"/><use transform="matrix(0.02666666666666667,0,0,0.02666666666666667,48,0)" xlink:href="#v"/><use transform="matrix(0.02666666666666667,0,0,0.02666666666666667,64,0)" xlink:href="#w"/></g><path d="M93-693h164v563h300L541 0H93v-693" id="x"/><path d="M300-549c163-2 258 116 258 282 0 171-91 285-258 284C133 18 40-95 42-266s89-279 258-283zm0 117c-81 0-94 69-95 166 2 98 14 167 95 167s93-71 95-168c-1-96-14-165-95-165" id="y"/><path d="M375 17c-126 1-186-78-186-204v-447H33v-108h314v575c-5 71 92 68 144 43l37 106c-43 23-94 35-153 35" id="z"/><g id="f"><use transform="matrix(0.02666666666666667,0,0,0.02666666666666667,0,0)" xlink:href="#x"/><use transform="matrix(0.02666666666666667,0,0,0.02666666666666667,16,0)" xlink:href="#y"/><use transform="matrix(0.02666666666666667,0,0,0.02666666666666667,32,0)" xlink:href="#v"/><use transform="matrix(0.02666666666666667,0,0,0.02666666666666667,48,0)" xlink:href="#r"/><use transform="matrix(0.02666666666666667,0,0,0.02666666666666667,64,0)" xlink:href="#z"/></g><path d="M561-482c0 102-62 159-138 190L604 0H418L268-265h-46V0H58v-693h218c173 0 281 52 285 211zm-169 0c0-91-75-101-170-96v200c99 7 170-7 170-104" id="A"/><path d="M292-548c116 0 174-24 250-68l36 116c-35 14-86 21-153 21 60 28 103 58 103 137 0 138-138 196-287 172-10 4-17 17-17 30 2 51 95 29 146 32 111 6 202 49 202 154 0 133-128 177-284 176-152-2-254-28-257-171h140c0 65 52 65 121 67 74-1 123-6 123-61 0-66-93-53-161-53C163 4 90-26 90-101c0-47 27-81 59-101-59-33-94-70-94-152 0-131 102-194 237-194zm4 103c-52-1-82 37-81 89-1 54 30 91 81 91 55 0 82-35 81-93 0-58-27-87-81-87" id="B"/><path d="M299-809c52-2 94 38 93 89 1 52-40 90-93 89-52 2-95-38-94-89-1-51 42-91 94-89zm95 701h136V0H86v-108h150v-315H91v-108h303v423" id="C"/><path d="M321-432c-45 0-66 30-93 61V0H70v-531h138l11 61c43-46 85-77 165-79 94-1 146 63 146 159V0H372v-344c-2-57-3-88-51-88" id="D"/><g id="g"><use transform="matrix(0.02666666666666667,0,0,0.02666666666666667,0,0)" xlink:href="#A"/><use transform="matrix(0.02666666666666667,0,0,0.02666666666666667,16,0)" xlink:href="#q"/><use transform="matrix(0.02666666666666667,0,0,0.02666666666666667,32,0)" xlink:href="#B"/><use transform="matrix(0.02666666666666667,0,0,0.02666666666666667,48,0)" xlink:href="#C"/><use transform="matrix(0.02666666666666667,0,0,0.02666666666666667,64,0)" xlink:href="#y"/><use transform="matrix(0.02666666666666667,0,0,0.02666666666666667,80,0)" xlink:href="#D"/></g><path d="M280-58c84 5 156-46 121-126-25-33-62-42-118-58-101-31-180-44-180-152 0-172 283-177 392-86l-38 58c-42-28-84-48-152-48-96-3-135 45-101 108 50 50 205 62 254 112 26 26 43 59 43 104C500 44 180 48 74-60l47-55c38 31 93 57 159 57" id="E"/><path d="M378 11c-91 1-156-55-156-145v-538H60v-67h246v609c-6 82 110 83 175 53l22 61c-33 18-75 27-125 27" id="F"/><path d="M50 108h500v74H50v-74" id="G"/><path d="M532-264c2 150-67 275-209 275-61 0-108-22-143-66l-6 55h-74v-739l84-10v291c41-53 91-80 151-80 148 2 196 117 197 274zM304-57c103-4 137-89 137-207-1-115-26-206-125-206-62 0-103 44-132 84v261c24 37 64 67 120 68" id="H"/><path d="M252 11c-100 1-152-56-152-155v-383h84v374c0 66 25 97 89 98 63 0 117-43 143-84v-388h84V0h-72l-7-71c-35 45-96 81-169 82" id="I"/><path d="M219-591c-3-153 202-192 335-130l-27 63c-33-15-71-22-113-22-73 0-110 29-110 87v107h178l-9 67H304V0h-85v-419H94v-67h125v-105" id="J"/><path d="M167-234c1 104 57 173 153 175 63-1 97-20 141-47l39 56c-43 34-108 60-180 61C164 13 77-104 79-263c3-156 76-272 229-275 155-3 231 134 213 304H167zm274-64c0-99-41-171-132-171-93 0-138 73-142 171h274" id="K"/><path d="M267-402c40-99 128-162 263-125l-12 179h-68v-113c-87-2-142 56-178 174v222h107V0H105v-65h83v-397h-83v-65h146" id="L"/><g id="h"><use transform="matrix(0.02666666666666667,0,0,0.02666666666666667,0,0)" xlink:href="#E"/><use transform="matrix(0.02666666666666667,0,0,0.02666666666666667,16,0)" xlink:href="#j"/><use transform="matrix(0.02666666666666667,0,0,0.02666666666666667,32,0)" xlink:href="#k"/><use transform="matrix(0.02666666666666667,0,0,0.02666666666666667,48,0)" xlink:href="#F"/><use transform="matrix(0.02666666666666667,0,0,0.02666666666666667,64,0)" xlink:href="#F"/><use transform="matrix(0.02666666666666667,0,0,0.02666666666666667,80,0)" xlink:href="#G"/><use transform="matrix(0.02666666666666667,0,0,0.02666666666666667,96,0)" xlink:href="#H"/><use transform="matrix(0.02666666666666667,0,0,0.02666666666666667,112.00000000000001,0)" xlink:href="#I"/><use transform="matrix(0.02666666666666667,0,0,0.02666666666666667,128,0)" xlink:href="#J"/><use transform="matrix(0.02666666666666667,0,0,0.02666666666666667,144,0)" xlink:href="#J"/><use transform="matrix(0.02666666666666667,0,0,0.02666666666666667,160,0)" xlink:href="#K"/><use transform="matrix(0.02666666666666667,0,0,0.02666666666666667,176,0)" xlink:href="#L"/></g><path d="M498-72L488 0H102v-64l292-389H125v-74h370v66L205-72h293" id="M"/><path d="M301-538c152-1 227 116 226 274 2 155-77 276-227 275C148 12 71-105 73-263c-2-156 77-276 228-275zm0 69c-107 0-137 85-137 206 1 121 29 205 136 205s135-84 136-206c-1-120-29-205-135-205" id="N"/><g id="i"><use transform="matrix(0.02666666666666667,0,0,0.02666666666666667,0,0)" xlink:href="#H"/><use transform="matrix(0.02666666666666667,0,0,0.02666666666666667,16,0)" xlink:href="#I"/><use transform="matrix(0.02666666666666667,0,0,0.02666666666666667,32,0)" xlink:href="#J"/><use transform="matrix(0.02666666666666667,0,0,0.02666666666666667,48,0)" xlink:href="#G"/><use transform="matrix(0.02666666666666667,0,0,0.02666666666666667,64,0)" xlink:href="#M"/><use transform="matrix(0.02666666666666667,0,0,0.02666666666666667,80,0)" xlink:href="#K"/><use transform="matrix(0.02666666666666667,0,0,0.02666666666666667,96,0)" xlink:href="#L"/><use transform="matrix(0.02666666666666667,0,0,0.02666666666666667,112.00000000000001,0)" xlink:href="#N"/><use transform="matrix(0.02666666666666667,0,0,0.02666666666666667,128,0)" xlink:href="#E"/></g></defs></g></svg>