<svg xmlns="http://www.w3.org/2000/svg" xmlns:xlink="http://www.w3.org/1999/xlink" xmlns:lucid="lucid" width="609" height="211"><g transform="translate(741 -833.8557217629906)" lucid:page-tab-id="0_0"><path d="M-740 953.5v-23.56a6 6 0 0 1 6-6h190.6a6 6 0 0 1 6 6v23.57z" stroke="#000" stroke-width="2" fill="#fff"/><path d="M-537.4 953.5v82.72a6 6 0 0 1-6 6H-734a6 6 0 0 1-6-6v-82.7z" stroke="#000" stroke-width="2" fill="none"/><use xlink:href="#a" transform="matrix(1,0,0,1,-739.9999999999794,923.9440550962104) translate(69.5 24.933333333333337)"/><path d="M-409 900h138v77h-138zM-271 900h138v77h-138z" fill="#fcfcca"/><path d="M-409 900v77M-409 900h138M-409 977h138M-271 900v77M-133 900v77M-271 900h138M-271 977h138" stroke="#000" stroke-width="2" fill="none"/><use xlink:href="#b" transform="matrix(1,0,0,1,-404.00000000000466,905) translate(0 42.43333333333334)"/><use xlink:href="#c" transform="matrix(1,0,0,1,-266.00000000000466,905) translate(0 42.43333333333334)"/><path d="M-483 839.86a6 6 0 0 1 6-6h62a6 6 0 0 1 6 6v30a6 6 0 0 1-6 6h-62a6 6 0 0 1-6-6z" fill="none"/><use xlink:href="#d" transform="matrix(1,0,0,1,-478.01000000000465,838.8557217629906) translate(0 25.433333333333334)"/><path d="M-600 839.86a6 6 0 0 1 6-6h78a6 6 0 0 1 6 6v30a6 6 0 0 1-6 6h-78a6 6 0 0 1-6-6z" fill="none"/><use xlink:href="#e" transform="matrix(1,0,0,1,-594.9999999999953,838.8557217629906) translate(0 25.433333333333334)"/><path d="M-494.68 841.86v4.2m0 16.74v8.37m0 16.75v8.38m0 16.75v8.37m0 16.75v8.38m0 16.75v8.37m0 16.75v8.38m0 16.75v8.37m0 16.75v4.2" stroke="#000" stroke-width="4" stroke-linecap="round" fill="none"/><path d="M-557 999.86h104.32a6 6 0 0 0 6-6v-49.2a6 6 0 0 1 6-6h11.7" stroke="#3a414a" stroke-width="4" fill="none"/><path d="M-556.94 1001.84h-2.37l.3-1.96-.25-2h2.3z" stroke="#3a414a" stroke-width=".05" fill="#3a414a"/><path d="M-414 938.67l-13 7.5v-15z" stroke="#3a414a" stroke-width="4" fill="#3a414a"/><path d="M-560 999.86c0 5.52-4.48 10-10 10s-10-4.48-10-10 4.48-10 10-10 10 4.48 10 10z" stroke="#000" stroke-width="2"/><path d="M-740 953.5h122v88.72h-122zM-618 953.5h80.6v88.72H-618z" fill-opacity="0"/><path d="M-740 953.5v88.72M-740 953.5h122M-740 1042.22h122M-537.4 953.5v88.72M-618 953.5h80.6M-618 1042.22h80.6" stroke="#000" stroke-width="2" fill="none"/><use xlink:href="#f" transform="matrix(1,0,0,1,-735,958.5119563308544) translate(0 48.43333333333334)"/><defs><path d="M447-538c76 0 102 52 102 146V0h-77v-378c-4-59 6-89-41-94-34 0-65 21-92 63V0h-78v-378c-4-59 6-89-41-94-34 0-65 21-92 63V0H51v-527h65l6 62c29-39 54-71 114-73 49 0 81 23 95 70 29-39 56-70 116-70" id="g"/><path d="M478-115c0 42 12 57 43 67l-21 60c-51-7-83-32-96-75-34 44-90 74-165 74C137 13 68-51 69-151c3-149 154-179 324-169 10-103-29-151-125-148-40 0-86 9-137 27l-23-64c153-63 370-47 370 137v253zM260-52c60-1 107-35 133-75v-135c-121-4-236-1-234 110 0 67 34 100 101 100" id="h"/><path d="M300-773c36-1 62 24 62 59s-26 60-62 59c-35 1-61-25-60-59-1-34 25-60 60-59zm67 706h148V0H121v-67h162v-393H126v-67h241v460" id="i"/><path d="M327-471c-64 0-116 47-143 88V0h-84v-527h72l7 74c34-46 100-84 174-85 99 0 148 52 148 156V0h-84v-320c-1-91-3-151-90-151" id="j"/><g id="a"><use transform="matrix(0.02666666666666667,0,0,0.02666666666666667,0,0)" xlink:href="#g"/><use transform="matrix(0.02666666666666667,0,0,0.02666666666666667,16,0)" xlink:href="#h"/><use transform="matrix(0.02666666666666667,0,0,0.02666666666666667,32,0)" xlink:href="#i"/><use transform="matrix(0.02666666666666667,0,0,0.02666666666666667,48,0)" xlink:href="#j"/></g><path d="M164-739h105l-16 260h-74zm167 0h105l-15 260h-74" id="k"/><path d="M289-538c121 0 157-10 240-44l25 79c-47 15-88 14-154 15 61 28 92 72 92 133 6 138-137 209-277 168-14 10-27 29-27 51-5 60 105 43 165 45 100 2 186 48 186 143 0 120-114 161-251 160-145-2-217-30-222-159h76c0 82 60 90 146 91 92-1 166-13 166-87 0-85-119-77-212-75-76 1-131-34-133-100 2-42 28-73 58-92-55-28-88-69-88-145 0-118 88-180 210-183zm-1 62c-79-1-123 45-123 121s45 125 125 123c76 0 115-47 115-124 0-80-39-120-117-120" id="l"/><path d="M280-58c84 5 156-46 121-126-25-33-62-42-118-58-101-31-180-44-180-152 0-172 283-177 392-86l-38 58c-42-28-84-48-152-48-96-3-135 45-101 108 50 50 205 62 254 112 26 26 43 59 43 104C500 44 180 48 74-60l47-55c38 31 93 57 159 57" id="m"/><path d="M354 3c-42 115-98 195-236 209l-12-67c98-15 140-60 167-145h-28L62-527h89L302-64l149-463h87" id="n"/><path d="M50 108h500v74H50v-74" id="o"/><path d="M517-68V0H120v-68h169v-529l-157 95-37-59 205-128h74v621h143" id="p"/><g id="b"><use transform="matrix(0.02666666666666667,0,0,0.02666666666666667,0,0)" xlink:href="#k"/><use transform="matrix(0.02666666666666667,0,0,0.02666666666666667,16,0)" xlink:href="#l"/><use transform="matrix(0.02666666666666667,0,0,0.02666666666666667,32,0)" xlink:href="#m"/><use transform="matrix(0.02666666666666667,0,0,0.02666666666666667,48,0)" xlink:href="#n"/><use transform="matrix(0.02666666666666667,0,0,0.02666666666666667,64,0)" xlink:href="#g"/><use transform="matrix(0.02666666666666667,0,0,0.02666666666666667,80,0)" xlink:href="#o"/><use transform="matrix(0.02666666666666667,0,0,0.02666666666666667,96,0)" xlink:href="#p"/><use transform="matrix(0.02666666666666667,0,0,0.02666666666666667,112.00000000000001,0)" xlink:href="#k"/></g><path d="M269-700c124 3 208 70 208 192 0 120-55 176-124 256-43 48-105 107-184 180h324L483 0H73v-68c136-135 216-196 291-327 54-94 26-241-99-234-79 4-106 26-148 73l-58-45c50-62 107-98 210-99" id="q"/><g id="c"><use transform="matrix(0.02666666666666667,0,0,0.02666666666666667,0,0)" xlink:href="#k"/><use transform="matrix(0.02666666666666667,0,0,0.02666666666666667,16,0)" xlink:href="#l"/><use transform="matrix(0.02666666666666667,0,0,0.02666666666666667,32,0)" xlink:href="#m"/><use transform="matrix(0.02666666666666667,0,0,0.02666666666666667,48,0)" xlink:href="#n"/><use transform="matrix(0.02666666666666667,0,0,0.02666666666666667,64,0)" xlink:href="#g"/><use transform="matrix(0.02666666666666667,0,0,0.02666666666666667,80,0)" xlink:href="#o"/><use transform="matrix(0.02666666666666667,0,0,0.02666666666666667,96,0)" xlink:href="#q"/><use transform="matrix(0.02666666666666667,0,0,0.02666666666666667,112.00000000000001,0)" xlink:href="#k"/></g><path d="M384-292H216V0H52v-693h164v266h168v-266h164V0H384v-292" id="r"/><path d="M305-549c182 0 265 135 246 330H207c9 143 167 146 264 77l63 86c-49 43-122 73-212 73C144 15 46-88 46-265c0-168 91-284 259-284zm0 106c-69 3-95 54-100 128h195c-1-85-33-128-95-128" id="s"/><path d="M517-153c0 38 8 53 35 64L519 15c-63-7-105-26-130-70-36 43-99 72-174 72C111 20 34-50 35-150c3-153 155-192 330-181 5-70-27-100-105-101-47 1-106 14-146 28L78-509c57-22 135-39 207-40 155 0 232 63 232 188v208zM269-96c41-1 82-27 96-58v-87c-92-6-167 15-167 80 0 42 27 65 71 65" id="t"/><path d="M364-549c149 3 194 121 194 282 0 153-58 277-204 284-51 0-93-18-126-55v243L70 222v-753h140l7 59c34-43 81-75 147-77zm31 284c-3-99-6-167-80-167-33 0-62 21-87 62v224c20 27 38 47 78 47 76 0 88-72 89-166" id="u"/><g id="d"><use transform="matrix(0.02666666666666667,0,0,0.02666666666666667,0,0)" xlink:href="#r"/><use transform="matrix(0.02666666666666667,0,0,0.02666666666666667,16,0)" xlink:href="#s"/><use transform="matrix(0.02666666666666667,0,0,0.02666666666666667,32,0)" xlink:href="#t"/><use transform="matrix(0.02666666666666667,0,0,0.02666666666666667,48,0)" xlink:href="#u"/></g><path d="M568-203C568-51 446 15 286 17 171 17 80-16 12-83l83-92c53 47 115 70 187 70 62 1 115-27 115-85 0-74-50-78-125-103-80-27-139-54-173-87s-51-76-51-129c-1-238 381-252 509-112l-77 89c-41-34-92-54-159-58-71-4-129 45-91 105 33 31 69 39 129 59 122 41 209 80 209 223" id="v"/><path d="M327-181c-9 94 114 82 169 49l52 101C498 1 440 17 374 17c-132 1-205-70-205-198v-241H58v-109h111v-115l158-19v134h171l-16 109H327v241" id="w"/><path d="M352-108c52-2 81-21 118-45l70 100c-47 39-113 70-197 70C169 14 69-89 69-262c0-174 103-283 277-287 87 1 143 25 194 67l-68 95c-39-27-78-40-119-40-79 0-119 55-119 165-1 98 32 151 118 154" id="x"/><path d="M228 0H70v-742l158-17V0zm171-296L588 0H408L234-291l175-240h165" id="y"/><g id="e"><use transform="matrix(0.02666666666666667,0,0,0.02666666666666667,0,0)" xlink:href="#v"/><use transform="matrix(0.02666666666666667,0,0,0.02666666666666667,16,0)" xlink:href="#w"/><use transform="matrix(0.02666666666666667,0,0,0.02666666666666667,32,0)" xlink:href="#t"/><use transform="matrix(0.02666666666666667,0,0,0.02666666666666667,48,0)" xlink:href="#x"/><use transform="matrix(0.02666666666666667,0,0,0.02666666666666667,64,0)" xlink:href="#y"/></g><path d="M532-264c2 150-67 275-209 275-61 0-108-22-143-66l-6 55h-74v-739l84-10v291c41-53 91-80 151-80 148 2 196 117 197 274zM304-57c103-4 137-89 137-207-1-115-26-206-125-206-62 0-103 44-132 84v261c24 37 64 67 120 68" id="z"/><path d="M301-538c152-1 227 116 226 274 2 155-77 276-227 275C148 12 71-105 73-263c-2-156 77-276 228-275zm0 69c-107 0-137 85-137 206 1 121 29 205 136 205s135-84 136-206c-1-120-29-205-135-205" id="A"/><path d="M378 11c-91 1-156-55-156-145v-538H60v-67h246v609c-6 82 110 83 175 53l22 61c-33 18-75 27-125 27" id="B"/><g id="f"><use transform="matrix(0.02666666666666667,0,0,0.02666666666666667,0,0)" xlink:href="#m"/><use transform="matrix(0.02666666666666667,0,0,0.02666666666666667,16,0)" xlink:href="#n"/><use transform="matrix(0.02666666666666667,0,0,0.02666666666666667,32,0)" xlink:href="#g"/><use transform="matrix(0.02666666666666667,0,0,0.02666666666666667,48,0)" xlink:href="#z"/><use transform="matrix(0.02666666666666667,0,0,0.02666666666666667,64,0)" xlink:href="#A"/><use transform="matrix(0.02666666666666667,0,0,0.02666666666666667,80,0)" xlink:href="#B"/><use transform="matrix(0.02666666666666667,0,0,0.02666666666666667,96,0)" xlink:href="#m"/></g></defs></g></svg>